HIERARCHY
ROOT Hips
{
	OFFSET 0.000000 100.481300 0.000000
	CHANNELS 6 Xposition Yposition Zposition Xrotation Yrotation Zrotation 
	JOINT Spine
	{
		OFFSET -0.279200 12.230698 -2.892100
		CHANNELS 3 Xrotation Yrotation Zrotation
		JOINT Spine1
		{
			OFFSET -0.232667 10.192268 -1.242267
			CHANNELS 3 Xrotation Yrotation Zrotation
			JOINT Spine1_split
			{
				OFFSET -0.232667 10.192268 -1.242267
				CHANNELS 3 Xrotation Yrotation Zrotation
				JOINT Spine2
				{
					OFFSET -0.232667 10.192268 -1.242267
					CHANNELS 3 Xrotation Yrotation Zrotation
					JOINT Neck
					{
						OFFSET -0.418800 17.814194 8.416900
						CHANNELS 3 Xrotation Yrotation Zrotation
						JOINT Head
						{
							OFFSET 0.000000 7.031097 3.806800
							CHANNELS 3 Xrotation Yrotation Zrotation
							JOINT HeadTop_End
							{
								OFFSET 0.000000 24.646606 12.978600
								CHANNELS 3 Xrotation Yrotation Zrotation
								End Site
								{
									OFFSET 0.000000 0.000000 0.000000
								}
							}
						}
					}
					JOINT LeftShoulder
					{
						OFFSET 8.476499 7.247704 -3.868750
						CHANNELS 3 Xrotation Yrotation Zrotation
						JOINT LeftShoulder_split
						{
							OFFSET 8.476499 7.247704 -3.868750
							CHANNELS 3 Xrotation Yrotation Zrotation
							JOINT LeftArm
							{
								OFFSET 9.308998 -2.777710 0.208600
								CHANNELS 3 Xrotation Yrotation Zrotation
								JOINT LeftForeArm
								{
									OFFSET 29.972298 0.000000 0.000000
									CHANNELS 3 Xrotation Yrotation Zrotation
									JOINT LeftHand
									{
										OFFSET 26.026505 0.000000 0.000000
										CHANNELS 3 Xrotation Yrotation Zrotation
										JOINT LeftHandThumb1
										{
											OFFSET 12.240501 -7.147949 9.207150
											CHANNELS 3 Xrotation Yrotation Zrotation
											JOINT LeftHandThumb2
											{
												OFFSET 4.138618 -2.389435 2.389433
												CHANNELS 3 Xrotation Yrotation Zrotation
												JOINT LeftHandThumb3
												{
													OFFSET 2.726913 -1.574387 1.574386
													CHANNELS 3 Xrotation Yrotation Zrotation
													JOINT LeftHandThumb4
													{
														OFFSET 3.941010 -2.275345 2.275342
														CHANNELS 3 Xrotation Yrotation Zrotation
														End Site
														{
															OFFSET 0.000000 0.000000 0.000000
														}
													}
												}
											}
										}
										JOINT LeftHandIndex1
										{
											OFFSET 24.424698 -1.985611 5.953459
											CHANNELS 3 Xrotation Yrotation Zrotation
											JOINT LeftHandIndex2
											{
												OFFSET 6.426697 0.000000 0.000000
												CHANNELS 3 Xrotation Yrotation Zrotation
												JOINT LeftHandIndex3
												{
													OFFSET 5.337898 0.000000 0.000000
													CHANNELS 3 Xrotation Yrotation Zrotation
													JOINT LeftHandIndex4
													{
														OFFSET 4.409401 0.000000 0.000000
														CHANNELS 3 Xrotation Yrotation Zrotation
														End Site
														{
															OFFSET 0.000000 0.000000 0.000000
														}
													}
												}
											}
										}
										JOINT LeftHandMiddle1
										{
											OFFSET 23.810104 0.000000 0.000000
											CHANNELS 3 Xrotation Yrotation Zrotation
											JOINT LeftHandMiddle2
											{
												OFFSET 7.176498 0.000000 0.000000
												CHANNELS 3 Xrotation Yrotation Zrotation
												JOINT LeftHandMiddle3
												{
													OFFSET 6.774902 0.000000 0.000000
													CHANNELS 3 Xrotation Yrotation Zrotation
													JOINT LeftHandMiddle4
													{
														OFFSET 5.403328 0.000000 0.000000
														CHANNELS 3 Xrotation Yrotation Zrotation
														End Site
														{
															OFFSET 0.000000 0.000000 0.000000
														}
													}
												}
											}
										}
										JOINT LeftHandRing1
										{
											OFFSET 22.908401 -0.839279 -6.020567
											CHANNELS 3 Xrotation Yrotation Zrotation
											JOINT LeftHandRing2
											{
												OFFSET 6.337502 0.000000 0.000000
												CHANNELS 3 Xrotation Yrotation Zrotation
												JOINT LeftHandRing3
												{
													OFFSET 5.779297 0.000000 0.000000
													CHANNELS 3 Xrotation Yrotation Zrotation
													JOINT LeftHandRing4
													{
														OFFSET 4.965698 0.000000 0.000000
														CHANNELS 3 Xrotation Yrotation Zrotation
														End Site
														{
															OFFSET 0.000000 0.000000 0.000000
														}
													}
												}
											}
										}
										JOINT LeftHandPinky1
										{
											OFFSET 20.037003 -1.530319 -10.950146
											CHANNELS 3 Xrotation Yrotation Zrotation
											JOINT LeftHandPinky2
											{
												OFFSET 5.254700 0.000000 0.000000
												CHANNELS 3 Xrotation Yrotation Zrotation
												JOINT LeftHandPinky3
												{
													OFFSET 4.810204 0.000000 0.000000
													CHANNELS 3 Xrotation Yrotation Zrotation
													JOINT LeftHandPinky4
													{
														OFFSET 3.647202 0.000000 0.000000
														CHANNELS 3 Xrotation Yrotation Zrotation
														End Site
														{
															OFFSET 0.000000 0.000000 0.000000
														}
													}
												}
											}
										}
									}
								}
							}
						}
					}
					JOINT RightShoulder
					{
						OFFSET -7.570500 7.247704 -3.868750
						CHANNELS 3 Xrotation Yrotation Zrotation
						JOINT RightShoulder_split
						{
							OFFSET -7.570500 7.247704 -3.868750
							CHANNELS 3 Xrotation Yrotation Zrotation
							JOINT RightArm
							{
								OFFSET -9.308998 -2.777710 0.208500
								CHANNELS 3 Xrotation Yrotation Zrotation
								JOINT RightForeArm
								{
									OFFSET -29.972300 0.000000 0.000000
									CHANNELS 3 Xrotation Yrotation Zrotation
									JOINT RightHand
									{
										OFFSET -26.026505 0.000000 0.000000
										CHANNELS 3 Xrotation Yrotation Zrotation
										JOINT RightHandThumb1
										{
											OFFSET -12.240601 -7.148026 9.207092
											CHANNELS 3 Xrotation Yrotation Zrotation
											JOINT RightHandThumb2
											{
												OFFSET -4.138618 -2.389435 2.389433
												CHANNELS 3 Xrotation Yrotation Zrotation
												JOINT RightHandThumb3
												{
													OFFSET -2.726974 -1.574417 1.574421
													CHANNELS 3 Xrotation Yrotation Zrotation
													JOINT RightHandThumb4
													{
														OFFSET -3.941010 -2.275345 2.275343
														CHANNELS 3 Xrotation Yrotation Zrotation
														End Site
														{
															OFFSET 0.000000 0.000000 0.000000
														}
													}
												}
											}
										}
										JOINT RightHandIndex1
										{
											OFFSET -24.424698 -1.985657 5.953444
											CHANNELS 3 Xrotation Yrotation Zrotation
											JOINT RightHandIndex2
											{
												OFFSET -6.426697 0.000000 0.000000
												CHANNELS 3 Xrotation Yrotation Zrotation
												JOINT RightHandIndex3
												{
													OFFSET -5.337898 0.000000 0.000000
													CHANNELS 3 Xrotation Yrotation Zrotation
													JOINT RightHandIndex4
													{
														OFFSET -4.409401 0.000000 0.000000
														CHANNELS 3 Xrotation Yrotation Zrotation
														End Site
														{
															OFFSET 0.000000 0.000000 0.000000
														}
													}
												}
											}
										}
										JOINT RightHandMiddle1
										{
											OFFSET -23.810097 0.000000 0.000000
											CHANNELS 3 Xrotation Yrotation Zrotation
											JOINT RightHandMiddle2
											{
												OFFSET -7.176498 0.000000 0.000000
												CHANNELS 3 Xrotation Yrotation Zrotation
												JOINT RightHandMiddle3
												{
													OFFSET -6.774902 0.000000 0.000000
													CHANNELS 3 Xrotation Yrotation Zrotation
													JOINT RightHandMiddle4
													{
														OFFSET -5.403328 0.000000 0.000000
														CHANNELS 3 Xrotation Yrotation Zrotation
														End Site
														{
															OFFSET 0.000000 0.000000 0.000000
														}
													}
												}
											}
										}
										JOINT RightHandRing1
										{
											OFFSET -22.908302 -0.839325 -6.020576
											CHANNELS 3 Xrotation Yrotation Zrotation
											JOINT RightHandRing2
											{
												OFFSET -6.337502 0.000000 0.000000
												CHANNELS 3 Xrotation Yrotation Zrotation
												JOINT RightHandRing3
												{
													OFFSET -5.779297 0.000000 0.000000
													CHANNELS 3 Xrotation Yrotation Zrotation
													JOINT RightHandRing4
													{
														OFFSET -4.965698 0.000000 0.000000
														CHANNELS 3 Xrotation Yrotation Zrotation
														End Site
														{
															OFFSET 0.000000 0.000000 0.000000
														}
													}
												}
											}
										}
										JOINT RightHandPinky1
										{
											OFFSET -20.037003 -1.530334 -10.950259
											CHANNELS 3 Xrotation Yrotation Zrotation
											JOINT RightHandPinky2
											{
												OFFSET -5.254700 0.000000 0.000000
												CHANNELS 3 Xrotation Yrotation Zrotation
												JOINT RightHandPinky3
												{
													OFFSET -4.810204 0.000000 0.000000
													CHANNELS 3 Xrotation Yrotation Zrotation
													JOINT RightHandPinky4
													{
														OFFSET -3.647202 0.000000 0.000000
														CHANNELS 3 Xrotation Yrotation Zrotation
														End Site
														{
															OFFSET 0.000000 0.000000 0.000000
														}
													}
												}
											}
										}
									}
								}
							}
						}
					}
				}
			}
		}
	}
	JOINT LeftUpLeg
	{
		OFFSET 15.427100 -6.655098 0.678600
		CHANNELS 3 Xrotation Yrotation Zrotation
		JOINT LeftLeg
		{
			OFFSET 4.081073 -39.591068 13.024000
			CHANNELS 3 Xrotation Yrotation Zrotation
			JOINT LeftFoot
			{
				OFFSET -4.081074 -37.707932 -15.979700
				CHANNELS 3 Xrotation Yrotation Zrotation
				JOINT LeftToeBase
				{
					OFFSET 5.346399 -15.068900 20.645000
					CHANNELS 3 Xrotation Yrotation Zrotation
					JOINT LeftToe_End
					{
						OFFSET 2.754700 0.931300 11.300900
						CHANNELS 3 Xrotation Yrotation Zrotation
						End Site
						{
							OFFSET 0.000000 0.000000 0.000000
						}
					}
				}
			}
		}
	}
	JOINT RightUpLeg
	{
		OFFSET -15.569500 -6.655098 0.678600
		CHANNELS 3 Xrotation Yrotation Zrotation
		JOINT RightLeg
		{
			OFFSET -4.081825 -39.591045 13.023800
			CHANNELS 3 Xrotation Yrotation Zrotation
			JOINT RightFoot
			{
				OFFSET 4.081824 -37.707954 -15.979600
				CHANNELS 3 Xrotation Yrotation Zrotation
				JOINT RightToeBase
				{
					OFFSET -5.346400 -15.068900 20.645000
					CHANNELS 3 Xrotation Yrotation Zrotation
					JOINT RightToe_End
					{
						OFFSET -2.754700 0.931300 11.300900
						CHANNELS 3 Xrotation Yrotation Zrotation
						End Site
						{
							OFFSET 0.000000 0.000000 0.000000
						}
					}
				}
			}
		}
	}
}
MOTION
Frames: 5
Frame Time: 0.016667
-0.347233 88.603889 -4.217153 -6.258851 -26.403447 2.154209 5.536945 -2.685133 -2.941912 1.469060 -2.839398 -0.460261 0.000000 0.000000 0.000000 1.463317 -2.694935 0.220314 2.455875 4.751711 1.127229 -0.495921 -18.984320 -3.620250 -0.000000 0.000005 -0.000000 -0.595445 -16.331998 -20.041827 0.000000 0.000000 0.000000 12.420930 10.550273 -35.769721 0.000111 -96.391878 0.000127 -130.486352 -9.490901 13.340971 -12.800142 -17.470125 4.121642 1.000139 0.731302 -1.438316 -7.335818 -0.421704 13.147355 0.000000 0.000001 0.000001 -3.532560 4.254367 -63.954572 3.402094 5.315519 -65.218915 1.034624 3.326113 -34.549832 0.000000 -0.000001 -0.000001 2.434389 7.296045 -69.364089 3.297862 5.266365 -64.088649 0.787094 2.934907 -30.019566 -0.000000 -0.000002 0.000003 4.717041 8.075513 -77.582268 2.056300 4.456882 -49.517656 1.539985 3.959690 -42.490614 -0.000001 -0.000002 0.000002 6.410320 8.363725 -80.414563 1.722730 4.149898 -45.074426 0.636252 2.657143 -26.928195 -0.000002 -0.000000 0.000001 0.930389 18.037669 10.376102 0.000000 0.000000 0.000000 6.836825 30.018924 41.382873 0.001020 94.273515 -0.001102 -34.121050 -22.154914 26.633986 20.470545 7.475587 18.843589 4.151721 -12.160910 -33.847993 -6.346109 -41.944059 -36.535474 0.000002 0.000000 0.000001 -0.887076 1.427988 12.684530 1.917401 -3.767462 53.934329 3.057997 -4.374575 69.896768 0.000002 -0.000002 -0.000000 0.770893 -5.199596 54.618827 5.563888 -4.568241 101.238608 4.771465 -4.655768 91.407875 -0.000002 -0.000000 -0.000002 6.934479 -8.544296 63.908775 2.909288 -4.317414 67.934701 1.862848 -3.727209 53.099451 -0.000000 -0.000000 0.000001 8.373399 -8.171768 73.989923 2.173677 -3.940975 57.745390 1.042021 -2.937888 39.049885 0.000002 -0.000003 -0.000002 -15.102279 9.541210 11.544951 31.171494 8.293304 1.083200 -0.003914 20.210977 -12.299530 -0.463431 0.008460 -1.046009 0.000000 0.000002 -0.000000 -8.883940 -33.786248 -13.107670 34.904818 7.584110 -6.156838 -24.513272 -19.903853 3.267041 -2.342332 0.000002 0.000002 0.000000 0.000000 -0.000000 
-0.634586 88.726547 -4.062273 -6.314006 -27.088004 1.980490 5.570081 -2.576610 -2.850569 1.469656 -2.769744 -0.466833 0.000000 0.000000 0.000000 1.463645 -2.627365 0.198466 2.455876 4.751696 1.127231 -0.517744 -18.807909 -3.545888 0.000000 -0.000002 -0.000000 -0.595444 -16.332003 -20.041826 0.000000 0.000000 0.000000 11.979358 10.162495 -35.915406 -0.000169 -96.251121 -0.000152 -130.145143 -9.203698 13.619370 -12.800143 -17.470123 4.121644 1.000143 0.731302 -1.438313 -7.335818 -0.421701 13.147358 -0.000000 0.000001 0.000001 -3.532559 4.254370 -63.954572 3.402097 5.315522 -65.218915 1.034628 3.326114 -34.549832 0.000001 -0.000001 -0.000002 2.434391 7.296046 -69.364089 3.297855 5.266366 -64.088649 0.787093 2.934906 -30.019566 -0.000004 0.000002 -0.000001 4.717040 8.075509 -77.582268 2.056310 4.456879 -49.517652 1.539981 3.959690 -42.490617 -0.000000 -0.000000 -0.000001 6.410321 8.363729 -80.414563 1.722727 4.149895 -45.074430 0.636254 2.657143 -26.928190 -0.000002 -0.000001 -0.000001 0.928819 18.095131 10.321578 0.000000 0.000000 0.000000 7.039708 29.557391 41.115027 0.000214 94.754463 -0.000160 -34.318729 -22.151502 26.224428 20.470545 7.475584 18.843584 4.151721 -12.160909 -33.848000 -6.346113 -41.944055 -36.535484 0.000001 -0.000001 0.000002 -0.887076 1.427989 12.684524 1.917405 -3.767463 53.934326 3.057992 -4.374574 69.896768 0.000001 0.000001 0.000000 0.770889 -5.199596 54.618823 5.563885 -4.568239 101.238601 4.771465 -4.655768 91.407875 0.000000 0.000001 0.000003 6.934477 -8.544297 63.908775 2.909291 -4.317414 67.934701 1.862846 -3.727209 53.099448 0.000002 0.000000 -0.000001 8.373396 -8.171766 73.989923 2.173676 -3.940973 57.745390 1.042020 -2.937887 39.049882 0.000001 -0.000001 -0.000002 -14.947872 9.505189 11.747811 31.488951 8.111098 1.112442 0.280012 20.952823 -12.063081 -0.561345 0.012374 -1.263830 0.000000 0.000002 -0.000000 -8.382362 -33.526387 -12.665244 34.535048 7.594119 -6.142569 -24.469692 -19.574508 3.202624 -2.342332 -0.000002 0.000002 0.000000 -0.000002 -0.000000 
-0.910624 88.861649 -3.913380 -6.370657 -27.773004 1.810674 5.600677 -2.456552 -2.765003 1.470253 -2.697858 -0.473616 0.000000 0.000000 0.000000 1.463943 -2.557645 0.176190 2.455875 4.751716 1.127229 -0.552614 -18.607536 -3.469238 0.000000 0.000001 0.000000 -0.595445 -16.332002 -20.041826 0.000000 0.000000 0.000000 11.555114 9.778295 -36.062299 -0.000301 -96.110283 -0.000292 -129.807445 -8.910040 13.881101 -12.800143 -17.470121 4.121643 1.000141 0.731302 -1.438318 -7.335820 -0.421704 13.147357 0.000000 0.000001 -0.000002 -3.532562 4.254365 -63.954572 3.402097 5.315519 -65.218915 1.034621 3.326112 -34.549829 0.000001 -0.000001 0.000001 2.434391 7.296048 -69.364089 3.297855 5.266367 -64.088649 0.787091 2.934905 -30.019566 -0.000001 0.000001 0.000000 4.717041 8.075509 -77.582268 2.056306 4.456882 -49.517649 1.539982 3.959691 -42.490614 -0.000003 0.000000 -0.000003 6.410320 8.363721 -80.414556 1.722727 4.149895 -45.074430 0.636253 2.657142 -26.928195 -0.000001 -0.000000 -0.000000 0.926477 18.152643 10.275617 0.000000 0.000000 0.000000 7.261014 29.087546 40.849148 0.000397 95.247466 -0.000344 -34.508373 -22.138993 25.801849 20.470545 7.475581 18.843587 4.151722 -12.160912 -33.848000 -6.346120 -41.944059 -36.535474 0.000002 -0.000004 0.000002 -0.887077 1.427987 12.684524 1.917407 -3.767461 53.934319 3.057993 -4.374573 69.896768 0.000001 -0.000002 -0.000000 0.770888 -5.199602 54.618823 5.563886 -4.568241 101.238601 4.771465 -4.655764 91.407875 0.000002 -0.000000 -0.000001 6.934477 -8.544302 63.908775 2.909286 -4.317412 67.934701 1.862845 -3.727210 53.099455 -0.000000 -0.000003 0.000000 8.373398 -8.171772 73.989923 2.173677 -3.940978 57.745390 1.042020 -2.937888 39.049885 0.000003 0.000001 -0.000001 -14.716353 9.481235 11.950211 31.699895 8.012913 1.133575 0.566604 21.612411 -11.920636 -0.649721 0.016543 -1.459453 0.000000 0.000001 -0.000000 -7.877511 -33.223939 -12.237545 34.137128 7.549221 -6.121316 -24.392656 -19.227872 3.176248 -2.342332 -0.000002 0.000002 0.000000 -0.000002 -0.000000 
-1.186506 88.998093 -3.762465 -6.428899 -28.458191 1.639731 5.629502 -2.327443 -2.679620 1.470858 -2.625028 -0.480489 0.000000 0.000000 0.000000 1.464210 -2.487012 0.153857 2.455876 4.751696 1.127231 -0.597447 -18.386461 -3.389411 -0.000000 0.000002 -0.000000 -0.595444 -16.332000 -20.041822 0.000000 0.000000 0.000000 11.157884 9.410621 -36.208960 -0.000152 -95.973911 -0.000176 -129.478448 -8.615285 14.116795 -12.800140 -17.470123 4.121642 1.000140 0.731303 -1.438311 -7.335819 -0.421704 13.147356 0.000001 -0.000003 0.000000 -3.532560 4.254363 -63.954572 3.402098 5.315523 -65.218922 1.034629 3.326113 -34.549829 0.000000 0.000002 -0.000001 2.434393 7.296044 -69.364089 3.297858 5.266366 -64.088649 0.787088 2.934904 -30.019566 0.000000 -0.000001 -0.000002 4.717041 8.075504 -77.582268 2.056303 4.456884 -49.517652 1.539984 3.959691 -42.490610 -0.000002 -0.000001 0.000003 6.410319 8.363722 -80.414556 1.722731 4.149897 -45.074430 0.636248 2.657142 -26.928195 -0.000000 0.000000 -0.000000 0.923533 18.206699 10.240317 0.000000 0.000000 0.000000 7.499877 28.626706 40.584653 0.000666 95.740701 -0.000635 -34.687263 -22.112924 25.372695 20.470547 7.475585 18.843592 4.151722 -12.160910 -33.847986 -6.346114 -41.944055 -36.535478 0.000002 0.000002 0.000002 -0.887076 1.427987 12.684529 1.917403 -3.767462 53.934322 3.057994 -4.374573 69.896768 -0.000001 0.000001 -0.000000 0.770890 -5.199597 54.618823 5.563888 -4.568240 101.238608 4.771464 -4.655768 91.407875 0.000001 0.000000 0.000000 6.934478 -8.544299 63.908775 2.909288 -4.317413 67.934701 1.862848 -3.727207 53.099451 0.000000 0.000003 0.000002 8.373396 -8.171770 73.989923 2.173675 -3.940977 57.745397 1.042021 -2.937887 39.049885 0.000000 -0.000001 0.000000 -14.555329 9.468383 12.096523 31.857874 8.001411 1.146402 0.823722 21.956417 -11.791595 -0.742133 0.020813 -1.634930 0.000000 0.000000 -0.000000 -7.363257 -32.887825 -11.818573 33.727962 7.459822 -6.092962 -24.306299 -18.867143 3.178489 -2.342332 0.000000 0.000002 -0.000000 0.000000 -0.000000 
-1.421373 89.115456 -3.600812 -6.488704 -29.139377 1.460576 5.650821 -2.158223 -2.587904 1.471477 -2.547698 -0.487784 0.000000 0.000000 0.000000 1.464452 -2.412452 0.130488 2.455876 4.751724 1.127229 -0.635373 -18.136437 -3.296947 -0.000000 0.000001 -0.000001 -0.595445 -16.332000 -20.041826 0.000000 0.000000 0.000000 10.825684 9.127654 -36.348836 -0.000155 -95.854472 -0.000179 -129.181157 -8.345432 14.279347 -12.800142 -17.470121 4.121641 1.000140 0.731302 -1.438308 -7.335818 -0.421703 13.147356 0.000001 0.000001 -0.000002 -3.532559 4.254367 -63.954572 3.402097 5.315523 -65.218915 1.034624 3.326112 -34.549832 -0.000001 0.000002 -0.000001 2.434389 7.296042 -69.364089 3.297862 5.266364 -64.088649 0.787093 2.934905 -30.019573 -0.000001 -0.000001 -0.000002 4.717039 8.075506 -77.582261 2.056309 4.456881 -49.517649 1.539985 3.959691 -42.490614 -0.000001 -0.000002 -0.000000 6.410317 8.363721 -80.414556 1.722727 4.149897 -45.074430 0.636252 2.657141 -26.928190 0.000000 -0.000001 0.000001 0.917854 18.249094 10.245465 0.000000 0.000000 0.000000 7.737192 28.253510 40.318132 -0.000076 96.156018 0.000108 -34.827729 -22.055765 24.996520 20.470543 7.475584 18.843590 4.151722 -12.160912 -33.847993 -6.346116 -41.944059 -36.535478 0.000004 -0.000001 0.000004 -0.887078 1.427986 12.684527 1.917404 -3.767461 53.934322 3.057992 -4.374573 69.896768 -0.000001 0.000001 -0.000000 0.770888 -5.199599 54.618823 5.563888 -4.568241 101.238608 4.771466 -4.655768 91.407882 -0.000002 0.000001 0.000001 6.934476 -8.544299 63.908775 2.909285 -4.317412 67.934708 1.862845 -3.727207 53.099455 -0.000001 -0.000000 0.000003 8.373394 -8.171766 73.989923 2.173674 -3.940976 57.745390 1.042020 -2.937891 39.049885 0.000000 -0.000001 -0.000004 -14.649776 9.463677 12.110036 32.079035 8.041694 1.152145 0.998378 21.827925 -11.538857 -0.854680 0.025302 -1.801538 0.000000 0.000001 -0.000000 -6.890073 -32.503883 -11.451767 33.356311 7.329955 -6.056495 -24.208151 -18.502141 3.229446 -2.342332 0.000000 0.000002 0.000000 0.000000 -0.000000 
